<svg width="40" height="41" viewBox="0 0 40 41" fill="none" xmlns="http://www.w3.org/2000/svg">
<g clip-path="url(#clip0_15_2824)">
<path d="M33.5024 38.1343L32.6295 31.1505C32.4977 30.0964 31.7723 29.2116 30.7646 28.8756L27.3985 27.7536C26.9362 27.5994 26.4292 27.6976 26.0727 28.0013L25.0811 27.6708C24.518 27.483 24.138 26.956 24.138 26.3623V24.138L27.1088 22.9001C28.6508 22.2578 29.6552 20.7512 29.6552 19.0806V18.391C30.7979 18.391 31.7241 17.4647 31.7241 16.322C31.7241 15.8066 31.5353 15.3356 31.2235 14.9733C31.8089 12.8425 33.4543 6.10214 31.7241 3.21861L32.4138 0.459991C32.4138 0.459991 25.1724 0.632405 21.3793 1.8393L22.7586 0.459991C22.7586 0.459991 13.0604 0.459991 11.0351 3.90766L11.0345 3.90826C11.0345 3.90826 7.58627 3.87955 7.58627 8.04618C7.58627 9.57118 8.43687 13.3791 8.80204 14.944C8.47506 15.3099 8.27592 15.7926 8.27592 16.322C8.27592 17.4647 9.20221 18.391 10.3449 18.391V19.0806C10.3449 20.7511 11.3493 22.2577 12.8913 22.9003L15.8621 24.1381V26.3624C15.8621 26.9561 15.4822 27.4831 14.919 27.6709L13.9275 28.0014C13.571 27.6977 13.0639 27.5995 12.6017 27.7536L9.23557 28.8757C8.22773 29.2117 7.50239 30.0965 7.37066 31.1506L6.49773 38.1344C6.34334 39.3692 7.30618 40.4599 8.55066 40.4599H8.57006H31.43H31.4494C32.6939 40.4599 33.6568 39.3692 33.5024 38.1343Z" fill="#FFD7A3"/>
<path d="M24.1379 24.1381L15.862 24.1381V26.3624C15.862 26.8588 15.5874 27.2961 15.1709 27.5399C20.9549 28.5522 24.1379 24.1381 24.1379 24.1381Z" fill="#FDC88E"/>
<path d="M8.96573 15.6324C8.96573 15.6324 7.58643 9.98807 7.58643 8.04618C7.58643 3.87955 11.0347 3.90826 11.0347 3.90826L11.0353 3.90766C13.0606 0.459991 22.7588 0.459991 22.7588 0.459991L21.3795 1.8393C25.1726 0.632405 32.414 0.459991 32.414 0.459991L31.7243 3.21861C33.7933 6.66687 31.0346 15.6324 31.0346 15.6324H8.96573Z" fill="#734A3E"/>
<path d="M22.7588 0.459991C22.7588 0.459991 13.0606 0.459991 11.0353 3.90766L11.0347 3.90826C11.0347 3.90826 7.58643 3.87955 7.58643 8.04618C7.58643 9.98807 8.96573 15.6324 8.96573 15.6324C8.96573 15.6324 23.3048 9.22437 32.414 0.459991C32.414 0.459991 25.1726 0.632405 21.3795 1.8393L22.7588 0.459991Z" fill="#623F33"/>
<path d="M29.6551 14.2531V12.8738C29.6551 10.9694 28.1113 9.42554 26.2069 9.42554H13.7931C11.8887 9.42554 10.3448 10.9694 10.3448 12.8738V14.2531C9.20217 14.2531 8.27588 15.1794 8.27588 16.3221C8.27588 17.4647 9.20217 18.391 10.3448 18.391V19.0807C10.3448 20.7511 11.3492 22.2578 12.8912 22.9003L17.3473 24.7571C18.1878 25.1073 19.0894 25.2876 19.9999 25.2876C20.9104 25.2876 21.8119 25.1072 22.6524 24.7571L27.1088 22.9003C28.6507 22.2578 29.6551 20.7512 29.6551 19.0807V18.391C30.7978 18.391 31.7241 17.4647 31.7241 16.3221C31.7241 15.1794 30.7978 14.2531 29.6551 14.2531Z" fill="#FFE1B2"/>
<path d="M15.1726 17.0116C14.7933 17.0116 14.4829 16.7013 14.4829 16.322V15.6323C14.4829 15.253 14.7933 14.9427 15.1726 14.9427C15.5519 14.9427 15.8622 15.253 15.8622 15.6323V16.322C15.8622 16.7013 15.5519 17.0116 15.1726 17.0116Z" fill="#623F33"/>
<path d="M24.8276 17.0116C24.4483 17.0116 24.1379 16.7013 24.1379 16.322V15.6323C24.1379 15.253 24.4483 14.9427 24.8276 14.9427C25.2069 14.9427 25.5172 15.253 25.5172 15.6323V16.322C25.5172 16.7013 25.2069 17.0116 24.8276 17.0116Z" fill="#623F33"/>
<path d="M20.0001 21.8582C18.774 21.8582 17.6271 21.5565 16.8536 21.0302C16.5388 20.8161 16.4569 20.387 16.6714 20.0722C16.8852 19.7577 17.3146 19.6758 17.6294 19.89C18.1716 20.2588 19.0579 20.479 20.0001 20.479C20.9424 20.479 21.8287 20.2588 22.3708 19.89C22.6863 19.6752 23.1147 19.7574 23.3288 20.0722C23.5433 20.387 23.4615 20.8161 23.1467 21.0302C22.3732 21.5565 21.2262 21.8582 20.0001 21.8582Z" fill="#E4B07B"/>
<path d="M33.5024 38.1343L32.6295 31.1505C32.4978 30.0964 31.7723 29.2116 30.7646 28.8756L27.3985 27.7536C26.8123 27.5581 26.1528 27.7668 25.8217 28.2886C24.5991 30.2148 22.4504 31.4943 20 31.4943C17.5497 31.4943 15.401 30.2147 14.1785 28.2886C13.8474 27.7668 13.1879 27.5581 12.6017 27.7536L9.23557 28.8756C8.22773 29.2116 7.50239 30.0964 7.37066 31.1505L6.49773 38.1343C6.34334 39.3691 7.30627 40.4599 8.55075 40.4599H31.4495C32.6939 40.4599 33.6568 39.3691 33.5024 38.1343Z" fill="#00BEA4"/>
<path d="M7.94558 29.7848C7.63937 30.1725 7.43437 30.6408 7.37066 31.1506L6.49773 38.1343C6.34334 39.3693 7.30627 40.4599 8.55075 40.4599H12.4138V35.9714C12.4138 35.3079 12.1747 34.6667 11.7403 34.1651L7.94558 29.7848Z" fill="#00AB9A"/>
<path d="M32.0545 29.7848C32.3607 30.1725 32.5657 30.6408 32.6294 31.1506L33.5023 38.1343C33.6567 39.3693 32.6938 40.4599 31.4493 40.4599H27.5862V35.9714C27.5862 35.3079 27.8253 34.6667 28.2597 34.1651L32.0545 29.7848Z" fill="#00AB9A"/>
<path d="M13.9652 21.4706C13.4064 20.8715 13.1035 20.0809 13.1035 19.2616V11.4461C15.2986 11.2815 22.2194 10.6829 26.207 9.42554H13.7931C13.5557 9.42554 13.3258 9.45321 13.1035 9.50148V9.49502C11.5296 9.81459 10.3448 11.2056 10.3448 12.8738V14.2531C9.20217 14.2531 8.27588 15.1794 8.27588 16.3221C8.27588 17.4647 9.20217 18.391 10.3448 18.391V19.0807C10.3448 20.7512 11.3492 22.2578 12.8912 22.9003L17.3472 24.7571C17.5653 24.8479 17.7879 24.9262 18.0134 24.994C16.0441 23.5534 14.7332 22.294 13.9652 21.4706Z" fill="#FFD7A3"/>
</g>
<defs>
<clipPath id="clip0_15_2824">
<rect width="40" height="40" fill="white" transform="translate(0 0.459991)"/>
</clipPath>
</defs>
</svg>
