<svg width="25" height="24" viewBox="0 0 25 24" fill="none" xmlns="http://www.w3.org/2000/svg">
<g id="mdi:land-fields">
<path id="Vector" d="M20.0803 2.00003H4.08032C2.98032 2.00003 2.08032 2.90003 2.08032 4.00003V20C2.08032 21.1 2.98032 22 4.08032 22H20.0803C21.1803 22 22.0803 21.1 22.0803 20V4.00003C22.0803 2.90003 21.1803 2.00003 20.0803 2.00003ZM15.3803 4.00003C14.5803 5.10003 14.0803 6.50003 14.0803 8.00003H10.0803C10.0803 6.40003 10.8803 4.90003 12.0803 4.00003H15.3803ZM14.0803 14H10.0803C10.0803 12.5 9.58032 11.1 8.78032 10H12.0803C13.2803 10.9 14.0803 12.4 14.0803 14ZM4.08032 4.00003H9.38032C8.58032 5.10003 8.08032 6.50003 8.08032 8.00003H4.08032V4.00003ZM4.08032 10H6.08032C7.28032 10.9 8.08032 12.3 8.08032 14H4.08032V10ZM4.08032 20V16H9.38032C8.58032 17.1 8.08032 18.5 8.08032 20H4.08032ZM10.0803 20C10.0803 18.4 10.8803 16.9 12.0803 16H15.3803C14.5803 17.1 14.0803 18.5 14.0803 20H10.0803ZM20.0803 20H16.0803C16.0803 18.4 16.8803 16.9 18.0803 16H20.0803V20ZM20.0803 14H16.0803C16.0803 12.5 15.5803 11.1 14.7803 10H20.0803V14ZM20.0803 8.00003H16.0803C16.0803 6.40003 16.8803 4.90003 18.0803 4.00003H20.0803V8.00003Z" fill="black"/>
</g>
</svg>
