<svg width="36" height="36" viewBox="0 0 36 36" fill="none" xmlns="http://www.w3.org/2000/svg">
<rect width="36" height="36" rx="8" fill="#FFCC91" fill-opacity="0.16"/>
<g clip-path="url(#clip0_139_456)">
<path d="M27.0042 17.7875C26.2691 15.886 24.993 14.2416 23.3335 13.0576C21.674 11.8735 19.7039 11.2016 17.6667 11.125C15.6295 11.2016 13.6595 11.8735 12 13.0576C10.3405 14.2416 9.06433 15.886 8.32923 17.7875C8.27958 17.9248 8.27958 18.0752 8.32923 18.2125C9.06433 20.114 10.3405 21.7584 12 22.9424C13.6595 24.1265 15.6295 24.7984 17.6667 24.875C19.7039 24.7984 21.674 24.1265 23.3335 22.9424C24.993 21.7584 26.2691 20.114 27.0042 18.2125C27.0539 18.0752 27.0539 17.9248 27.0042 17.7875ZM17.6667 23.625C14.3542 23.625 10.8542 21.1687 9.58548 18C10.8542 14.8312 14.3542 12.375 17.6667 12.375C20.9792 12.375 24.4792 14.8312 25.748 18C24.4792 21.1687 20.9792 23.625 17.6667 23.625Z" fill="black"/>
<path d="M17.6667 14.25C16.9251 14.25 16.2 14.4699 15.5834 14.882C14.9667 15.294 14.486 15.8797 14.2022 16.5649C13.9184 17.2502 13.8441 18.0042 13.9888 18.7316C14.1335 19.459 14.4907 20.1272 15.0151 20.6517C15.5395 21.1761 16.2077 21.5333 16.9352 21.6779C17.6626 21.8226 18.4166 21.7484 19.1018 21.4645C19.787 21.1807 20.3727 20.7001 20.7848 20.0834C21.1968 19.4667 21.4167 18.7417 21.4167 18C21.4167 17.0054 21.0217 16.0516 20.3184 15.3483C19.6151 14.6451 18.6613 14.25 17.6667 14.25ZM17.6667 20.5C17.1723 20.5 16.6889 20.3534 16.2778 20.0787C15.8667 19.804 15.5463 19.4135 15.3571 18.9567C15.1678 18.4999 15.1183 17.9972 15.2148 17.5123C15.3112 17.0273 15.5494 16.5819 15.899 16.2322C16.2486 15.8826 16.6941 15.6445 17.179 15.548C17.664 15.4516 18.1666 15.5011 18.6235 15.6903C19.0803 15.8795 19.4707 16.2 19.7454 16.6111C20.0201 17.0222 20.1667 17.5055 20.1667 18C20.1667 18.663 19.9034 19.2989 19.4345 19.7678C18.9657 20.2366 18.3298 20.5 17.6667 20.5Z" fill="black"/>
</g>
<defs>
<clipPath id="clip0_139_456">
<rect width="20" height="20" fill="white" transform="translate(7.66675 8)"/>
</clipPath>
</defs>
</svg>
