<svg width="36" height="36" viewBox="0 0 36 36" fill="none" xmlns="http://www.w3.org/2000/svg">
<rect width="36" height="36" rx="8" fill="#3AAB83" fill-opacity="0.2"/>
<path d="M24.6667 9.66666H11.3334C10.4167 9.66666 9.66669 10.4167 9.66669 11.3333V24.6667C9.66669 25.5833 10.4167 26.3333 11.3334 26.3333H24.6667C25.5834 26.3333 26.3334 25.5833 26.3334 24.6667V11.3333C26.3334 10.4167 25.5834 9.66666 24.6667 9.66666ZM20.75 11.3333C20.0834 12.25 19.6667 13.4167 19.6667 14.6667H16.3334C16.3334 13.3333 17 12.0833 18 11.3333H20.75ZM19.6667 19.6667H16.3334C16.3334 18.4167 15.9167 17.25 15.25 16.3333H18C19 17.0833 19.6667 18.3333 19.6667 19.6667ZM11.3334 11.3333H15.75C15.0834 12.25 14.6667 13.4167 14.6667 14.6667H11.3334V11.3333ZM11.3334 16.3333H13C14 17.0833 14.6667 18.25 14.6667 19.6667H11.3334V16.3333ZM11.3334 24.6667V21.3333H15.75C15.0834 22.25 14.6667 23.4167 14.6667 24.6667H11.3334ZM16.3334 24.6667C16.3334 23.3333 17 22.0833 18 21.3333H20.75C20.0834 22.25 19.6667 23.4167 19.6667 24.6667H16.3334ZM24.6667 24.6667H21.3334C21.3334 23.3333 22 22.0833 23 21.3333H24.6667V24.6667ZM24.6667 19.6667H21.3334C21.3334 18.4167 20.9167 17.25 20.25 16.3333H24.6667V19.6667ZM24.6667 14.6667H21.3334C21.3334 13.3333 22 12.0833 23 11.3333H24.6667V14.6667Z" fill="#3AAB83"/>
</svg>
