<svg width="40" height="41" viewBox="0 0 40 41" fill="none" xmlns="http://www.w3.org/2000/svg">
<g id="girl-12" clip-path="url(#clip0_15_2912)">
<g id="Group">
<path id="Vector" d="M33.0506 36.1489L32.9191 35.6983C32.8555 35.4806 32.6435 35.3472 32.4254 35.3749L32.2866 34.3338L31.9991 32.1773C31.9991 32.1772 31.9991 32.1772 31.9991 32.1771L31.9657 31.9265C31.8147 30.7936 31.1127 29.8095 29.9567 29.2315L28.6021 28.5542C28.3827 28.4446 28.2152 28.5857 28.0541 28.7649L25.0812 27.6711C24.518 27.4834 24.1381 26.9563 24.1381 26.3626V24.1383L27.1089 22.9004C28.6507 22.2578 29.6551 20.7512 29.6551 19.0807V12.8738C29.6551 10.9693 28.1112 8.0462 26.2068 8.0462H13.793C11.8886 8.0462 10.3448 10.9693 10.3448 12.8738V19.0807C10.3448 20.7511 11.3492 22.2578 12.8911 22.9003L15.862 24.1382V26.3624C15.862 26.9561 15.4821 27.4832 14.9189 27.6709L11.9461 28.7647C11.7849 28.5855 11.6174 28.4443 11.398 28.554L10.0434 29.2314C8.88735 29.8094 8.18545 30.7935 8.03441 31.9264L8.00105 32.1769C8.00105 32.177 8.00105 32.1771 8.00105 32.1772L7.71355 34.3336L7.57476 35.3747C7.35666 35.347 7.14467 35.4804 7.08105 35.6981L6.9495 36.1487C6.87907 36.39 7.0176 36.6426 7.2589 36.713L7.39122 36.7516L7.20916 38.1175C7.04347 39.3579 8.00829 40.46 9.25959 40.46H30.7403C31.9916 40.46 32.9565 39.3579 32.7911 38.1176L32.609 36.7517L32.7413 36.7131C32.9825 36.6428 33.121 36.3902 33.0506 36.1489Z" fill="#F6B47B"/>
<path id="Vector_2" d="M15.8619 23.9945V26.3625C15.8619 26.8533 15.6018 27.298 15.1936 27.5436C20.6896 28.4932 23.8309 24.371 24.1164 23.9945H15.8619Z" fill="#E2A071"/>
<path id="Vector_3" d="M27.1087 22.9003L22.6523 24.7572C21.8118 25.1073 20.9103 25.2877 19.9998 25.2877C19.0893 25.2877 18.1877 25.1073 17.3472 24.7572L12.8911 22.9004C11.3491 22.2578 10.3447 20.7512 10.3447 19.0807V12.8738C10.3447 10.9694 11.8886 8.0462 13.793 8.0462H26.2068C28.1112 8.0462 29.6551 10.9694 29.6551 12.8738V19.0807C29.6551 20.7512 28.6507 22.2578 27.1087 22.9003Z" fill="#FDC88E"/>
<path id="Vector_4" d="M15.1723 17.0117C14.793 17.0117 14.4827 16.7014 14.4827 16.3221V15.6324C14.4827 15.2531 14.793 14.9427 15.1723 14.9427C15.5516 14.9427 15.862 15.2531 15.862 15.6324V16.3221C15.862 16.7014 15.5516 17.0117 15.1723 17.0117Z" fill="#623F33"/>
<path id="Vector_5" d="M24.8276 17.0117C24.4483 17.0117 24.1379 16.7014 24.1379 16.3221V15.6324C24.1379 15.2531 24.4483 14.9427 24.8276 14.9427C25.2069 14.9427 25.5173 15.2531 25.5173 15.6324V16.3221C25.5173 16.7014 25.2069 17.0117 24.8276 17.0117Z" fill="#623F33"/>
<g id="Group_2">
<path id="Vector_6" d="M19.9999 21.8581C18.7738 21.8581 17.6269 21.5564 16.8533 21.0301C16.5385 20.816 16.4566 20.3869 16.6712 20.0721C16.885 19.7576 17.3144 19.6757 17.6292 19.8899C18.1714 20.2586 19.0576 20.4789 19.9999 20.4789C20.9421 20.4789 21.8284 20.2586 22.3706 19.8899C22.6861 19.6751 23.1145 19.7573 23.3286 20.0721C23.5431 20.3869 23.4613 20.816 23.1464 21.0301C22.373 21.5564 21.226 21.8581 19.9999 21.8581Z" fill="#E2A071"/>
</g>
<path id="Vector_7" d="M10.3447 13.6618V19.0808C10.3447 20.7512 11.3491 22.258 12.8911 22.9005L17.3471 24.7572C17.5652 24.848 17.7878 24.9263 18.0133 24.9942C16.0439 23.5536 14.7331 22.2942 13.965 21.4707C13.4062 20.8716 13.1033 20.081 13.1033 19.2617V15.4073C15.0775 14.7182 20.1848 12.4549 20.2557 8.73606C20.2624 8.3846 20.257 8.07124 20.2415 7.79184C16.9958 12.2285 12.4991 13.3919 10.3447 13.6618Z" fill="#F6B47B"/>
<path id="Vector_8" d="M31.9396 23.399C31.9396 21.9377 30.7349 21.3202 30.7349 20.0758C30.7349 18.8314 32.3002 18.4966 32.3002 16.6311C32.3002 15.384 31.7445 14.4159 31.3759 13.5236C33.4776 4.41456 25.5938 0.459991 23.4482 0.459991C21.2069 0.459991 20 1.14965 20 1.14965C20 1.14965 18.7931 0.459991 16.5517 0.459991C14.4062 0.459991 6.52238 4.41456 8.62402 13.5235C8.2554 14.4158 7.69971 15.384 7.69971 16.631C7.69971 18.4966 9.26505 18.8313 9.26505 20.0757C9.26505 21.3201 8.06031 21.9377 8.06031 23.3989C8.06031 24.8602 9.22066 25.5677 9.59764 26.6671C9.77005 27.17 9.56893 28.6784 9.56893 28.6784C9.56893 28.6784 10.7974 26.6515 10.1508 24.7895C9.50428 22.9275 10.2543 22.7271 10.8405 21.914C11.7241 20.6884 11.6043 19.3134 10.8826 17.977C10.4166 17.1139 10.5393 16.2802 11.1925 15.6997C11.88 15.0889 12.0412 14.0346 12.0421 14.0279C15.3071 13.0721 20 11.1571 20 8.0462C20 11.1571 24.6928 13.0721 27.9577 14.0279C27.9588 14.0346 28.12 15.0889 28.8074 15.6997C29.4606 16.2802 29.5832 17.1139 29.1172 17.977C28.3956 19.3134 28.2757 20.6885 29.1594 21.914C29.7456 22.7271 30.4956 22.9275 29.849 24.7895C29.2025 26.6514 30.4309 28.6784 30.4309 28.6784C30.4309 28.6784 30.2298 27.1699 30.4022 26.6671C30.7793 25.5677 31.9396 24.8602 31.9396 23.399Z" fill="#6E4439"/>
<path id="Vector_9" d="M31.9656 31.9266C31.8145 30.7937 31.1125 29.8096 29.9566 29.2316L28.6019 28.5543C28.3515 28.4291 28.1687 28.6307 27.9859 28.8427C24.3104 33.104 20.0001 34.9433 20.0001 34.9433H20H20C20 34.9433 15.6897 33.104 12.0142 28.8427C11.8313 28.6307 11.6485 28.4291 11.3981 28.5543L10.0435 29.2316C8.88745 29.8097 8.18556 30.7938 8.03452 31.9266L7.47314 36.1366C9.29487 36.764 12.4137 37.7016 12.4137 37.7016V40.4602H27.5861V37.7016C27.5861 37.7016 30.7049 36.764 32.5268 36.1366L31.9656 31.9266Z" fill="#57B9DD"/>
<path id="Vector_10" d="M12.3966 37.4907C12.3544 36.6706 12.0806 35.8782 11.5861 35.2187L8.34841 30.9018C8.19212 31.2237 8.08229 31.5663 8.03419 31.9265L7.48755 36.0266L12.3966 37.4907Z" fill="#43A0C5"/>
<path id="Vector_11" d="M6.94926 36.149C6.87883 36.3903 7.01736 36.643 7.25857 36.7133L12.4137 38.2171V37.7015C12.4137 37.3757 12.3625 37.0566 12.2878 36.7435L7.64503 35.3892C7.40383 35.3188 7.15124 35.4573 7.08089 35.6985L6.94926 36.149Z" fill="#258CAC"/>
<path id="Vector_12" d="M27.6033 37.4907C27.6454 36.6706 27.9192 35.8782 28.4138 35.2187L31.6515 30.9018C31.8078 31.2237 31.9176 31.5663 31.9657 31.9265L32.5123 36.0266L27.6033 37.4907Z" fill="#43A0C5"/>
<path id="Vector_13" d="M33.0507 36.149C33.1211 36.3903 32.9826 36.643 32.7414 36.7133L27.5862 38.2171V37.7015C27.5862 37.3757 27.6374 37.0566 27.7121 36.7435L32.3549 35.3892C32.5961 35.3188 32.8487 35.4573 32.919 35.6985L33.0507 36.149Z" fill="#258CAC"/>
<path id="Vector_14" d="M16.5517 0.459991C14.4062 0.459991 6.52247 4.41456 8.62402 13.5235C8.2554 14.4158 7.69971 15.384 7.69971 16.631C7.69971 18.4966 9.26505 18.8313 9.26505 20.0757C9.26505 21.3201 8.06031 21.9377 8.06031 23.3989C8.06031 24.8602 9.22065 25.5677 9.59764 26.6671C9.77005 27.17 9.56893 28.6784 9.56893 28.6784C9.56893 28.6784 10.7974 26.6515 10.1508 24.7895C9.50427 22.9275 10.2543 22.7271 10.8405 21.914C11.7241 20.6884 11.6043 19.3134 10.8826 17.977C10.4166 17.1139 10.5393 16.2802 11.1925 15.6997C11.88 15.0889 12.0412 14.0346 12.0421 14.0279L12.0414 14.0278C12.0417 14.0278 12.0419 14.0277 12.0421 14.0277C10.0938 5.06068 17.8613 1.1568 20 1.14999V1.14965C20 1.14965 18.7931 0.459991 16.5517 0.459991Z" fill="#5E342E"/>
</g>
</g>
<defs>
<clipPath id="clip0_15_2912">
<rect width="40" height="40" fill="white" transform="translate(0 0.459991)"/>
</clipPath>
</defs>
</svg>
