<svg width="25" height="24" viewBox="0 0 25 24" fill="none" xmlns="http://www.w3.org/2000/svg">
<g id="tabler:world">
<g id="Group">
<path id="Vector" d="M4.35586 9H21.1559M4.35586 15H21.1559M3.75586 12C3.75586 13.1819 3.98865 14.3522 4.44094 15.4442C4.89324 16.5361 5.55617 17.5282 6.3919 18.364C7.22763 19.1997 8.21978 19.8626 9.31171 20.3149C10.4036 20.7672 11.574 21 12.7559 21C13.9378 21 15.1081 20.7672 16.2 20.3149C17.2919 19.8626 18.2841 19.1997 19.1198 18.364C19.9555 17.5282 20.6185 16.5361 21.0708 15.4442C21.5231 14.3522 21.7559 13.1819 21.7559 12C21.7559 9.61305 20.8076 7.32387 19.1198 5.63604C17.432 3.94821 15.1428 3 12.7559 3C10.3689 3 8.07973 3.94821 6.3919 5.63604C4.70407 7.32387 3.75586 9.61305 3.75586 12Z" stroke="#2D9C74" stroke-width="2" stroke-linecap="round" stroke-linejoin="round"/>
<path id="Vector_2" d="M12.256 3C10.5714 5.69961 9.67822 8.81787 9.67822 12C9.67822 15.1821 10.5714 18.3004 12.256 21M13.256 3C14.9407 5.69961 15.8338 8.81787 15.8338 12C15.8338 15.1821 14.9407 18.3004 13.256 21" stroke="#2D9C74" stroke-width="2" stroke-linecap="round" stroke-linejoin="round"/>
</g>
</g>
</svg>
