<svg width="25" height="24" viewBox="0 0 25 24" fill="none" xmlns="http://www.w3.org/2000/svg">
<g id="material-symbols:help-outline">
<path id="Vector" d="M12.7059 18C13.0559 18 13.3519 17.879 13.5939 17.637C13.8359 17.395 13.9565 17.0993 13.9559 16.75C13.9559 16.4 13.8352 16.104 13.5939 15.862C13.3525 15.62 13.0565 15.4993 12.7059 15.5C12.3559 15.5 12.0602 15.621 11.8189 15.863C11.5775 16.105 11.4565 16.4007 11.4559 16.75C11.4559 17.1 11.5769 17.396 11.8189 17.638C12.0609 17.88 12.3565 18.0007 12.7059 18ZM11.8059 14.15H13.6559C13.6559 13.6 13.7185 13.1667 13.8439 12.85C13.9692 12.5333 14.3232 12.1 14.9059 11.55C15.3392 11.1167 15.6809 10.704 15.9309 10.312C16.1809 9.92 16.3059 9.44933 16.3059 8.9C16.3059 7.96667 15.9642 7.25 15.2809 6.75C14.5975 6.25 13.7892 6 12.8559 6C11.9059 6 11.1349 6.25 10.5429 6.75C9.95086 7.25 9.53853 7.85 9.30586 8.55L10.9559 9.2C11.0392 8.9 11.2269 8.575 11.5189 8.225C11.8109 7.875 12.2565 7.7 12.8559 7.7C13.3892 7.7 13.7892 7.846 14.0559 8.138C14.3225 8.43 14.4559 8.75067 14.4559 9.1C14.4559 9.43333 14.3559 9.746 14.1559 10.038C13.9559 10.33 13.7059 10.6007 13.4059 10.85C12.6725 11.5 12.2225 11.9917 12.0559 12.325C11.8892 12.6583 11.8059 13.2667 11.8059 14.15ZM12.7559 22C11.3725 22 10.0725 21.7373 8.85586 21.212C7.63919 20.6867 6.58086 19.9743 5.68086 19.075C4.78086 18.175 4.06853 17.1167 3.54386 15.9C3.01919 14.6833 2.75653 13.3833 2.75586 12C2.75586 10.6167 3.01853 9.31667 3.54386 8.1C4.06919 6.88333 4.78153 5.825 5.68086 4.925C6.58086 4.025 7.63919 3.31267 8.85586 2.788C10.0725 2.26333 11.3725 2.00067 12.7559 2C14.1392 2 15.4392 2.26267 16.6559 2.788C17.8725 3.31333 18.9309 4.02567 19.8309 4.925C20.7309 5.825 21.4435 6.88333 21.9689 8.1C22.4942 9.31667 22.7565 10.6167 22.7559 12C22.7559 13.3833 22.4932 14.6833 21.9679 15.9C21.4425 17.1167 20.7302 18.175 19.8309 19.075C18.9309 19.975 17.8725 20.6877 16.6559 21.213C15.4392 21.7383 14.1392 22.0007 12.7559 22ZM12.7559 20C14.9892 20 16.8809 19.225 18.4309 17.675C19.9809 16.125 20.7559 14.2333 20.7559 12C20.7559 9.76667 19.9809 7.875 18.4309 6.325C16.8809 4.775 14.9892 4 12.7559 4C10.5225 4 8.63086 4.775 7.08086 6.325C5.53086 7.875 4.75586 9.76667 4.75586 12C4.75586 14.2333 5.53086 16.125 7.08086 17.675C8.63086 19.225 10.5225 20 12.7559 20Z" fill="black"/>
</g>
</svg>
