<svg width="25" height="24" viewBox="0 0 25 24" fill="none" xmlns="http://www.w3.org/2000/svg">
<g id="majesticons:home">
<path id="Vector" d="M20.0803 18.9999V10.4999C20.0803 10.3447 20.0442 10.1916 19.9747 10.0527C19.9053 9.91387 19.8045 9.79309 19.6803 9.69994L12.6803 4.44994C12.5072 4.32012 12.2967 4.24994 12.0803 4.24994C11.864 4.24994 11.6534 4.32012 11.4803 4.44994L4.48032 9.69994C4.35613 9.79309 4.25532 9.91387 4.18589 10.0527C4.11647 10.1916 4.08032 10.3447 4.08032 10.4999V18.9999C4.08032 19.2652 4.18568 19.5195 4.37322 19.707C4.56075 19.8946 4.81511 19.9999 5.08032 19.9999H9.08032C9.34554 19.9999 9.59989 19.8946 9.78743 19.707C9.97497 19.5195 10.0803 19.2652 10.0803 18.9999V15.9999C10.0803 15.7347 10.1857 15.4804 10.3732 15.2928C10.5608 15.1053 10.8151 14.9999 11.0803 14.9999H13.0803C13.3455 14.9999 13.5999 15.1053 13.7874 15.2928C13.975 15.4804 14.0803 15.7347 14.0803 15.9999V18.9999C14.0803 19.2652 14.1857 19.5195 14.3732 19.707C14.5608 19.8946 14.8151 19.9999 15.0803 19.9999H19.0803C19.3455 19.9999 19.5999 19.8946 19.7874 19.707C19.975 19.5195 20.0803 19.2652 20.0803 18.9999Z" stroke="black" stroke-width="2" stroke-linecap="round" stroke-linejoin="round"/>
</g>
</svg>
