<svg width="47" height="26" viewBox="0 0 47 26" fill="none" xmlns="http://www.w3.org/2000/svg">
<g clip-path="url(#clip0_11_1298)">
<path d="M46.6871 25.3386C29.6062 23.8053 0.768005 25.5622 0.768005 25.5622" stroke="#0F623D" stroke-width="0.638185" stroke-miterlimit="10"/>
<path d="M8.21742 13.5722C8.07203 14.1028 8.05354 14.6601 8.16346 15.1991C8.27337 15.7381 8.50862 16.2437 8.85015 16.675L11.2197 15.307L8.21742 13.5722Z" fill="#0F623D"/>
<path d="M10.6998 11.1545C9.87774 11.213 8.59422 12.3473 8.34033 13.2419L10.6998 14.6039V11.1545Z" fill="#0F623D"/>
<path d="M11.0545 13.81L14.0406 12.0853C13.6605 11.6898 13.1906 11.3917 12.6708 11.2164C12.151 11.041 11.5966 10.9935 11.0545 11.0779V13.81Z" fill="#0F623D"/>
<path d="M14.9192 15.4419C15.0649 14.9119 15.0837 14.355 14.9741 13.8163C14.8645 13.2776 14.6297 12.7723 14.2885 12.3412L11.9189 13.7092L14.9192 15.4419Z" fill="#0F623D"/>
<path d="M12.0821 17.9484V15.2203L9.08789 16.949C9.47382 17.3385 9.94586 17.6318 10.4659 17.8054C10.986 17.979 11.5396 18.0279 12.0821 17.9484Z" fill="#0F623D"/>
<path d="M12.4367 17.8638C13.3253 17.7469 14.623 16.5924 14.7922 15.7724L12.4367 14.4145V17.8638Z" fill="#0F623D"/>
<path d="M11.8403 14.0639C11.7456 14.0276 11.659 13.9289 11.5683 13.9289C11.4777 13.9289 11.391 14.0276 11.2963 14.0659C11.0948 14.1485 10.982 14.2674 11.0505 14.4689C11.0505 14.5918 11.0505 14.6703 11.0505 14.759C11.0545 14.7905 11.0703 14.8193 11.0948 14.8396C11.171 14.8792 11.245 14.9229 11.3165 14.9705C11.3484 15.0037 11.3868 15.0302 11.4292 15.0482C11.4716 15.0663 11.5172 15.0756 11.5633 15.0756C11.6094 15.0756 11.655 15.0663 11.6974 15.0482C11.7398 15.0302 11.7782 15.0037 11.8101 14.9705C11.8887 14.9061 12.0116 14.8839 12.066 14.8053C12.1204 14.7267 12.066 14.6038 12.0882 14.495C12.1012 14.4505 12.1051 14.4037 12.0996 14.3576C12.0941 14.3114 12.0793 14.2669 12.0562 14.2266C12.033 14.1863 12.002 14.1512 11.9649 14.1232C11.9278 14.0952 11.8854 14.0751 11.8403 14.0639Z" fill="#0F623D"/>
<path d="M35.5726 2.18066C37.0657 2.30155 36.9951 3.08932 36.9951 3.08932C35.9433 3.43788 35.5726 2.18066 35.5726 2.18066Z" fill="#0F623D"/>
<path d="M38.2888 13.2056V4.68502H37.3377V3.91939C38.3915 4.27198 38.7603 3.01273 38.7603 3.01273C37.3941 3.12355 37.3377 3.79045 37.3377 3.90328V2.12422C38.3915 2.47278 38.7603 1.21555 38.7603 1.21555C37.3941 1.32434 37.3377 1.99527 37.3377 2.1081V0.534546H36.9911V4.69307H20.3355C22.7967 7.1571 24.2404 10.4571 24.3795 13.9369H21.9434C21.7948 11.3061 20.6518 8.82999 18.746 7.01011C16.8401 5.19022 14.3139 4.16253 11.6787 4.13515C9.04358 4.10776 6.49649 5.08272 4.55324 6.8626C2.60999 8.64248 1.41585 11.0943 1.21256 13.7215C1.00927 16.3487 1.81203 18.955 3.45834 21.0126C5.10465 23.0701 7.47145 24.4253 10.0794 24.8035C12.6874 25.1818 15.3417 24.5549 17.5048 23.0498C19.6679 21.5447 21.1782 19.2739 21.7298 16.6972H27.14L27.275 16.2741C27.8188 14.5181 28.9104 12.9824 30.3901 11.8915C31.8697 10.8006 33.6597 10.2119 35.4981 10.2116C35.627 10.2116 35.754 10.2116 35.8809 10.2116V13.2197C34.5026 13.5289 33.2874 14.3372 32.4695 15.4888C31.6515 16.6405 31.2887 18.054 31.4507 19.4571C31.6128 20.8603 32.2883 22.1539 33.3473 23.0887C34.4062 24.0236 35.7736 24.5336 37.1862 24.5206C38.5988 24.5076 39.9566 23.9724 40.9981 23.0181C42.0396 22.0639 42.6911 20.7581 42.8273 19.3521C42.9634 17.9462 42.5745 16.5397 41.7355 15.4033C40.8964 14.267 39.6665 13.4813 38.2827 13.1975L38.2888 13.2056ZM10.9558 21.0935C9.21556 20.8788 7.63009 19.9869 6.54312 18.6111C5.45615 17.2354 4.95527 15.4868 5.14907 13.7442C5.34288 12.0017 6.21575 10.4058 7.57844 9.3025C8.94114 8.19918 10.6838 7.67739 12.4287 7.85025C12.4821 7.85612 12.5311 7.88299 12.5647 7.92493C12.5983 7.96687 12.6139 8.02046 12.608 8.0739C12.6022 8.12733 12.5753 8.17624 12.5334 8.20987C12.4914 8.2435 12.4378 8.25908 12.3844 8.2532C11.1571 8.11842 9.91743 8.35033 8.82191 8.91962C7.72638 9.48891 6.82415 10.3701 6.22917 11.4518C5.63418 12.5335 5.37315 13.7673 5.47901 14.9973C5.58487 16.2272 6.0529 17.3983 6.82396 18.3624C7.59503 19.3266 8.63455 20.0407 9.81124 20.4144C10.9879 20.7882 12.249 20.8049 13.4352 20.4624C14.6214 20.12 15.6794 19.4337 16.4758 18.4903C17.2721 17.5469 17.771 16.3887 17.9094 15.1619C17.9156 15.1085 17.9427 15.0597 17.9848 15.0262C18.0269 14.9928 18.0807 14.9775 18.1341 14.9836C18.1875 14.9898 18.2363 15.0169 18.2698 15.059C18.3032 15.1011 18.3186 15.1548 18.3124 15.2083C18.1308 16.8351 17.3567 18.3383 16.1378 19.4311C14.9189 20.5239 13.3404 21.13 11.7033 21.1338C11.4535 21.1322 11.2039 21.1168 10.9558 21.0874V21.0935ZM15.3887 14.5212C15.3887 15.2791 15.1637 16.02 14.7422 16.6499C14.3207 17.2798 13.7217 17.7704 13.0211 18.0596C12.3205 18.3488 11.5498 18.4236 10.8067 18.2744C10.0635 18.1252 9.38139 17.7588 8.8467 17.2216C8.31202 16.6844 7.94883 16.0006 7.80316 15.2569C7.65749 14.5131 7.73592 13.7428 8.02847 13.0437C8.32101 12.3445 8.81455 11.7479 9.44652 11.3294C10.0785 10.911 10.8204 10.6895 11.5784 10.6931C12.5899 10.6974 13.5586 11.1017 14.2729 11.8179C14.9873 12.534 15.3891 13.5037 15.3907 14.5152L15.3887 14.5212ZM13.0755 8.21896C13.0755 8.15232 13.0953 8.08719 13.1323 8.03182C13.1694 7.97644 13.2221 7.93332 13.2837 7.90791C13.3453 7.8825 13.4131 7.87596 13.4784 7.88911C13.5437 7.90225 13.6037 7.9345 13.6506 7.98175C13.6976 8.02901 13.7295 8.08916 13.7423 8.15456C13.755 8.21996 13.7481 8.28768 13.7223 8.34912C13.6965 8.41057 13.6531 8.46298 13.5975 8.4997C13.5419 8.53643 13.4766 8.55582 13.41 8.55542C13.3655 8.55517 13.3216 8.54607 13.2807 8.52864C13.2398 8.51121 13.2028 8.48581 13.1719 8.45392C13.1409 8.42203 13.1167 8.38429 13.1005 8.34291C13.0843 8.30153 13.0765 8.25733 13.0775 8.21291L13.0755 8.21896ZM17.8006 20.4105C16.7086 21.616 15.3028 22.4943 13.7404 22.9471C13.7217 22.95 13.7027 22.95 13.684 22.9471C13.6306 22.9545 13.5763 22.9405 13.5333 22.908C13.4902 22.8755 13.4618 22.8272 13.4543 22.7738C13.4468 22.7204 13.4609 22.6661 13.4934 22.6231C13.5259 22.58 13.5742 22.5516 13.6276 22.5441C15.1169 22.1121 16.4569 21.2751 17.4984 20.1264C17.516 20.1064 17.5375 20.0901 17.5614 20.0785C17.5854 20.0668 17.6115 20.0601 17.6381 20.0586C17.6647 20.0571 17.6913 20.0609 17.7164 20.0697C17.7416 20.0786 17.7647 20.0924 17.7845 20.1103C17.8058 20.1278 17.8233 20.1496 17.8359 20.1742C17.8484 20.1988 17.8558 20.2258 17.8575 20.2534C17.8592 20.281 17.8552 20.3086 17.8458 20.3346C17.8363 20.3606 17.8216 20.3843 17.8026 20.4044L17.8006 20.4105ZM18.2298 19.9249C18.1249 19.9127 18.029 19.8599 17.9627 19.7777C17.8964 19.6956 17.8649 19.5907 17.8751 19.4857C17.8859 19.3779 17.9382 19.2785 18.0209 19.2085C18.1036 19.1386 18.2104 19.1036 18.3185 19.1109C18.4226 19.1221 18.5182 19.1734 18.5851 19.2539C18.652 19.3343 18.685 19.4377 18.6771 19.5421C18.6627 19.6489 18.6092 19.7465 18.5269 19.8161C18.4446 19.8857 18.3395 19.9223 18.2318 19.9188L18.2298 19.9249ZM19.0358 18.9175C19.0178 18.9485 18.992 18.9742 18.9608 18.9919C18.9296 19.0097 18.8943 19.0187 18.8585 19.0182C18.8226 19.0182 18.7872 19.0092 18.7557 18.992C18.7321 18.9789 18.7113 18.9611 18.6947 18.9398C18.6781 18.9184 18.6659 18.894 18.659 18.8678C18.652 18.8417 18.6504 18.8144 18.6542 18.7877C18.658 18.7609 18.6672 18.7351 18.6811 18.712C19.2302 17.7579 19.5859 16.705 19.7281 15.6134C19.8702 14.5219 19.7959 13.413 19.5094 12.3501C19.223 11.2873 18.73 10.2912 18.0585 9.41888C17.3871 8.54654 16.5504 7.81498 15.5962 7.26597C14.6421 6.71695 13.5891 6.36123 12.4974 6.21912C11.4057 6.07701 10.2968 6.15129 9.23381 6.43773C8.17085 6.72417 7.17473 7.21714 6.30232 7.88852C5.4299 8.55989 4.69828 9.39651 4.14921 10.3506C4.13605 10.3737 4.11844 10.3939 4.09741 10.4102C4.07639 10.4265 4.05233 10.4384 4.02667 10.4453C4.00101 10.4523 3.97427 10.454 3.94791 10.4506C3.92156 10.4471 3.89614 10.4385 3.87314 10.4252C3.84978 10.412 3.82931 10.3943 3.81288 10.3731C3.79644 10.3519 3.7844 10.3277 3.77746 10.3018C3.77052 10.2759 3.76881 10.2489 3.77244 10.2223C3.77607 10.1958 3.78497 10.1702 3.79861 10.1471C4.36699 9.13229 5.13113 8.24034 6.04676 7.52295C6.96238 6.80557 8.01127 6.27699 9.13266 5.96789C10.2541 5.65878 11.4256 5.57528 12.5796 5.72221C13.7335 5.86914 14.8467 6.24359 15.8549 6.82386C16.863 7.40414 17.7459 8.17869 18.4525 9.10264C19.1591 10.0266 19.6753 11.0816 19.9712 12.2064C20.267 13.3313 20.3367 14.5037 20.1761 15.6557C20.0156 16.8077 19.6279 17.9164 19.0358 18.9175ZM37.1382 21.7382C36.5616 21.7382 35.9979 21.5672 35.5184 21.2469C35.0389 20.9265 34.6652 20.4712 34.4445 19.9385C34.2238 19.4057 34.1661 18.8196 34.2786 18.254C34.3911 17.6885 34.6688 17.169 35.0765 16.7613C35.4843 16.3536 36.0038 16.0759 36.5694 15.9634C37.135 15.8509 37.7212 15.9087 38.254 16.1293C38.7868 16.35 39.2421 16.7236 39.5625 17.2031C39.8829 17.6825 40.0539 18.2462 40.0539 18.8228C40.0502 19.5939 39.7411 20.3321 39.1942 20.8759C38.6474 21.4196 37.9074 21.7246 37.1362 21.7241L37.1382 21.7382Z" fill="#0F623D"/>
<path d="M35.5726 0.236328C37.0657 0.357216 36.9951 1.145 36.9951 1.145C35.9433 1.49557 35.5726 0.236328 35.5726 0.236328Z" fill="#0F623D"/>
<path d="M37.0677 12.9073C35.9009 12.9093 34.7608 13.2571 33.7916 13.9068C32.8223 14.5564 32.0675 15.4788 31.6223 16.5573C31.1772 17.6358 31.0617 18.822 31.2906 19.9661C31.5195 21.1102 32.0824 22.1607 32.9081 22.9851C33.7339 23.8094 34.7855 24.3704 35.9301 24.5973C37.0747 24.8242 38.2608 24.7067 39.3387 24.2598C40.4165 23.8128 41.3376 23.0564 41.9857 22.0862C42.6337 21.1159 42.9796 19.9754 42.9796 18.8086C42.9796 18.0328 42.8266 17.2646 42.5294 16.548C42.2322 15.8313 41.7966 15.1803 41.2475 14.6322C40.6984 14.0841 40.0465 13.6496 39.3293 13.3536C38.6121 13.0577 37.8436 12.906 37.0677 12.9073ZM37.1362 21.724C36.5596 21.724 35.9959 21.5531 35.5164 21.2327C35.0369 20.9124 34.6632 20.457 34.4425 19.9243C34.2218 19.3916 34.1641 18.8054 34.2766 18.2399C34.3891 17.6743 34.6668 17.1549 35.0745 16.7471C35.4823 16.3394 36.0018 16.0618 36.5674 15.9493C37.133 15.8368 37.7192 15.8945 38.252 16.1152C38.7847 16.3358 39.2401 16.7095 39.5605 17.1889C39.8809 17.6684 40.0519 18.232 40.0519 18.8086C40.0519 19.5819 39.7447 20.3234 39.1979 20.8701C38.6511 21.4169 37.9095 21.724 37.1362 21.724Z" fill="#0F623D"/>
</g>
<defs>
<clipPath id="clip0_11_1298">
<rect width="45.9493" height="25.5274" fill="white" transform="translate(0.755981 0.236298)"/>
</clipPath>
</defs>
</svg>
