<svg width="20" height="20" viewBox="0 0 20 20" fill="none" xmlns="http://www.w3.org/2000/svg">
<g id="mdi:land-fields">
<path id="Vector" d="M16.6667 1.66666H3.33335C2.41669 1.66666 1.66669 2.41666 1.66669 3.33332V16.6667C1.66669 17.5833 2.41669 18.3333 3.33335 18.3333H16.6667C17.5834 18.3333 18.3334 17.5833 18.3334 16.6667V3.33332C18.3334 2.41666 17.5834 1.66666 16.6667 1.66666ZM12.75 3.33332C12.0834 4.24999 11.6667 5.41666 11.6667 6.66666H8.33335C8.33335 5.33332 9.00002 4.08332 10 3.33332H12.75ZM11.6667 11.6667H8.33335C8.33335 10.4167 7.91669 9.24999 7.25002 8.33332H10C11 9.08332 11.6667 10.3333 11.6667 11.6667ZM3.33335 3.33332H7.75002C7.08335 4.24999 6.66669 5.41666 6.66669 6.66666H3.33335V3.33332ZM3.33335 8.33332H5.00002C6.00002 9.08332 6.66669 10.25 6.66669 11.6667H3.33335V8.33332ZM3.33335 16.6667V13.3333H7.75002C7.08335 14.25 6.66669 15.4167 6.66669 16.6667H3.33335ZM8.33335 16.6667C8.33335 15.3333 9.00002 14.0833 10 13.3333H12.75C12.0834 14.25 11.6667 15.4167 11.6667 16.6667H8.33335ZM16.6667 16.6667H13.3334C13.3334 15.3333 14 14.0833 15 13.3333H16.6667V16.6667ZM16.6667 11.6667H13.3334C13.3334 10.4167 12.9167 9.24999 12.25 8.33332H16.6667V11.6667ZM16.6667 6.66666H13.3334C13.3334 5.33332 14 4.08332 15 3.33332H16.6667V6.66666Z" fill="#2D9C74"/>
</g>
</svg>
