<svg width="24" height="24" viewBox="0 0 24 24" fill="none" xmlns="http://www.w3.org/2000/svg">
<g id="circum:wheat">
<path id="Vector" d="M15.2471 13.8256C15.5936 13.4605 15.8465 13.0169 15.9841 12.5328C16.1216 12.0486 16.1399 11.5383 16.0371 11.0456C15.9955 10.8481 15.8979 10.6668 15.7561 10.5232C15.6142 10.3796 15.4341 10.2797 15.2371 10.2356C15.588 9.87114 15.8444 9.42633 15.9838 8.94001C16.1233 8.45369 16.1416 7.94062 16.0371 7.4456C15.9948 7.24409 15.8947 7.05926 15.7491 6.91366C15.6035 6.76806 15.4187 6.66797 15.2171 6.6256C14.5281 6.48318 13.8114 6.57102 13.1771 6.8756C13.6993 6.31192 13.9927 5.57393 14.0001 4.8056C13.9954 4.29415 13.8641 3.79183 13.6181 3.34341C13.3721 2.89499 13.0189 2.51441 12.5901 2.2356C12.4195 2.11928 12.2182 2.05623 12.0117 2.05445C11.8052 2.05267 11.6028 2.11224 11.4301 2.2256C10.9977 2.50459 10.6409 2.88609 10.3915 3.33619C10.142 3.78629 10.0076 4.29104 10.0001 4.8056C10.0058 5.5756 10.3023 6.31501 10.8301 6.8756C10.1971 6.56683 9.47899 6.47883 8.79015 6.6256C8.58794 6.6664 8.40226 6.76598 8.2564 6.91185C8.11053 7.05771 8.01095 7.24339 7.97015 7.4456C7.86442 7.93982 7.88114 8.45238 8.01883 8.93866C8.15652 9.42494 8.41102 9.87018 8.76015 10.2356C8.56439 10.2801 8.38566 10.3802 8.24549 10.5239C8.10533 10.6676 8.00971 10.8488 7.97015 11.0456C7.86571 11.5375 7.88213 12.0474 8.01798 12.5316C8.15383 13.0158 8.40506 13.4598 8.75015 13.8256C8.55653 13.8758 8.38085 13.9792 8.24299 14.1242C8.10514 14.2691 8.01062 14.4497 7.97015 14.6456C7.86888 15.0929 7.87043 15.5573 7.97467 16.0039C8.07892 16.4505 8.28315 16.8676 8.57198 17.2239C8.86081 17.5801 9.2267 17.8661 9.64211 18.0604C10.0575 18.2547 10.5116 18.3522 10.9701 18.3456C11.1481 18.3484 11.3258 18.3316 11.5001 18.2956V21.4456C11.5001 21.5782 11.5528 21.7054 11.6466 21.7992C11.7404 21.8929 11.8675 21.9456 12.0001 21.9456C12.1328 21.9456 12.2599 21.8929 12.3537 21.7992C12.4475 21.7054 12.5001 21.5782 12.5001 21.4456V18.2956C12.6778 18.332 12.8589 18.3488 13.0401 18.3456C13.442 18.3489 13.8405 18.2729 14.2128 18.1218C14.5852 17.9708 14.9241 17.7478 15.2101 17.4656C15.5693 17.0997 15.8328 16.6511 15.9776 16.1593C16.1223 15.6675 16.1438 15.1477 16.0401 14.6456C15.9974 14.4487 15.9005 14.2676 15.7604 14.1227C15.6203 13.9779 15.4425 13.875 15.2471 13.8256ZM11.4171 17.3056C11.0766 17.3787 10.7232 17.3668 10.3883 17.2709C10.0534 17.1749 9.74736 16.998 9.49715 16.7556C9.24894 16.5015 9.07134 16.1871 8.98189 15.8433C8.89245 15.4996 8.89426 15.1384 8.98715 14.7956C9.14225 14.7678 9.29958 14.7544 9.45715 14.7556C9.72622 14.7505 9.99353 14.8001 10.2428 14.9015C10.4921 15.003 10.7181 15.1541 10.9071 15.3456C11.1579 15.598 11.3373 15.9124 11.4269 16.2567C11.5165 16.6011 11.5131 16.963 11.4171 17.3056ZM11.4171 13.7056C11.0766 13.7794 10.723 13.7679 10.388 13.6719C10.053 13.5759 9.74697 13.3986 9.49715 13.1556C9.24902 12.9036 9.07135 12.5909 8.98185 12.2487C8.89236 11.9065 8.89419 11.5468 8.98715 11.2056C9.14118 11.1697 9.29903 11.153 9.45715 11.1556C9.72622 11.1505 9.99353 11.2001 10.2428 11.3015C10.4921 11.403 10.7181 11.5541 10.9071 11.7456C11.1579 11.998 11.3373 12.3124 11.4269 12.6567C11.5165 13.0011 11.5131 13.363 11.4171 13.7056ZM11.4171 10.1056C11.0766 10.1794 10.723 10.1679 10.388 10.0719C10.053 9.97593 9.74697 9.79856 9.49715 9.5556C9.24902 9.30356 9.07135 8.99085 8.98185 8.64868C8.89236 8.30651 8.89419 7.94685 8.98715 7.6056C9.14197 7.57465 9.29929 7.55792 9.45715 7.5556C9.72622 7.55046 9.99353 7.60011 10.2428 7.70154C10.4921 7.80297 10.7181 7.95406 10.9071 8.1456C11.1579 8.39798 11.3373 8.71238 11.4269 9.05671C11.5165 9.40105 11.5131 9.76299 11.4171 10.1056ZM11.9771 6.5556C11.6814 6.36844 11.437 6.11031 11.2664 5.80468C11.0958 5.49905 11.0042 5.15561 11.0001 4.8056C11.0033 4.44932 11.1013 4.10031 11.2841 3.79449C11.4668 3.48866 11.7278 3.23707 12.0401 3.0656C12.3314 3.25382 12.5715 3.51123 12.739 3.81486C12.9065 4.11848 12.9962 4.45885 13.0001 4.8056C12.9955 5.16086 12.8989 5.50886 12.7196 5.81559C12.5403 6.12232 12.2845 6.37729 11.9771 6.5556ZM14.5071 16.7556C14.2514 17.0012 13.9369 17.1771 13.5937 17.2664C13.2505 17.3557 12.8902 17.3554 12.5471 17.2656C12.5162 17.1175 12.4995 16.9669 12.4971 16.8156V16.7956C12.4933 16.2501 12.7054 15.7252 13.0871 15.3356C13.4607 14.9689 13.9637 14.7641 14.4871 14.7656C14.6793 14.7648 14.8709 14.7883 15.0571 14.8356C15.1285 15.1762 15.1157 15.5291 15.0199 15.8637C14.924 16.1983 14.748 16.5044 14.5071 16.7556ZM14.5071 13.1556C14.2527 13.4033 13.9383 13.5806 13.5946 13.67C13.251 13.7594 12.89 13.7579 12.5471 13.6656C12.5162 13.5175 12.4995 13.3668 12.4971 13.2156V13.1956C12.4943 12.9268 12.545 12.6602 12.6463 12.4113C12.7476 12.1623 12.8975 11.936 13.0871 11.7456C13.2702 11.5607 13.4883 11.4142 13.7287 11.3146C13.9691 11.215 14.227 11.1644 14.4871 11.1656C14.679 11.1698 14.87 11.1932 15.0571 11.2356C15.1285 11.5762 15.1157 11.9291 15.0199 12.2637C14.924 12.5983 14.748 12.9044 14.5071 13.1556ZM14.5071 9.5556C14.254 9.80527 13.9396 9.98385 13.5955 10.0734C13.2514 10.1629 12.8899 10.1602 12.5471 10.0656C12.5162 9.91753 12.4995 9.76685 12.4971 9.6156V9.5956C12.4943 9.32684 12.545 9.06021 12.6463 8.81125C12.7476 8.5623 12.8975 8.33601 13.0871 8.1456C13.2722 7.96121 13.4923 7.81577 13.7344 7.71787C13.9766 7.61997 14.236 7.57159 14.4971 7.5756C14.686 7.57543 14.8741 7.59895 15.0571 7.6456C15.1285 7.98467 15.1157 8.33607 15.0199 8.66905C14.924 9.00203 14.7479 9.30643 14.5071 9.5556Z" fill="white"/>
</g>
</svg>
