<svg width="21" height="20" viewBox="0 0 21 20" fill="none" xmlns="http://www.w3.org/2000/svg">
<path d="M10.6201 0C5.09727 0 0.620117 4.47715 0.620117 10C0.620117 15.5228 5.09727 20 10.6201 20C16.143 20 20.6201 15.5228 20.6201 10C20.6137 4.47982 16.1403 0.00642897 10.6201 0Z" fill="#0F623D" fill-opacity="0.103693"/>
<path d="M16.3927 6.83313L10.6885 14.574C10.5525 14.7545 10.3496 14.8727 10.1255 14.9022C9.90142 14.9316 9.67489 14.8698 9.49683 14.7306L5.42349 11.474C5.06405 11.1863 5.00584 10.6617 5.29349 10.3023C5.58114 9.94285 6.10571 9.88465 6.46516 10.1723L9.86183 12.8898L15.051 5.8473C15.2212 5.59195 15.5179 5.45078 15.8233 5.47983C16.1288 5.50887 16.3936 5.70344 16.5126 5.98627C16.6316 6.26911 16.5855 6.59445 16.3927 6.83313Z" fill="#0F623D"/>
</svg>
