<svg width="21" height="21" viewBox="0 0 21 21" fill="none" xmlns="http://www.w3.org/2000/svg">
<path opacity="0.1" d="M10.6201 0.5C5.09727 0.5 0.620117 4.97715 0.620117 10.5C0.620117 16.0228 5.09727 20.5 10.6201 20.5C16.143 20.5 20.6201 16.0228 20.6201 10.5C20.6137 4.97982 16.1403 0.506429 10.6201 0.5Z" fill="white"/>
<path d="M16.3925 7.33313L10.6884 15.074C10.5523 15.2545 10.3495 15.3727 10.1254 15.4022C9.9013 15.4316 9.67477 15.3698 9.4967 15.2306L5.42337 11.974C5.06393 11.6863 5.00572 11.1617 5.29337 10.8023C5.58102 10.4429 6.10559 10.3846 6.46504 10.6723L9.8617 13.3898L15.0509 6.3473C15.221 6.09195 15.5177 5.95078 15.8232 5.97983C16.1287 6.00887 16.3935 6.20344 16.5125 6.48627C16.6314 6.76911 16.5854 7.09445 16.3925 7.33313Z" fill="white"/>
</svg>
